<svg width="346" height="105" viewBox="0 0 346 105" fill="none" xmlns="http://www.w3.org/2000/svg">
<path d="M57.5187 54.049C57.7374 53.7482 57.9152 53.6525 58.0519 53.7619C58.216 53.8712 58.1749 54.09 57.9289 54.4181C57.6828 54.7189 57.0265 55.6623 55.9601 57.2482C54.8937 58.8341 53.8683 60.3107 52.8839 61.6779C51.8996 63.0177 50.4914 64.59 48.6593 66.3947C46.8273 68.1994 44.9542 69.7169 43.0402 70.9474C41.1535 72.1505 38.8429 73.1623 36.1085 73.9826C33.3742 74.7755 30.5304 75.09 27.5773 74.9259C23.6398 74.7345 19.921 73.5998 16.421 71.5216C12.921 69.4162 9.91323 66.6544 7.3976 63.2365C4.88198 59.7912 2.95425 55.6623 1.6144 50.8498C0.274558 46.0099 -0.231301 40.9103 0.0968238 35.5509C0.452293 29.9728 1.46401 24.9005 3.13198 20.3341C4.82729 15.7677 6.98745 11.9806 9.61245 8.97281C12.2648 5.93765 15.341 3.64078 18.841 2.08218C22.341 0.52359 26.0597 -0.160004 29.9972 0.0314026C32.8957 0.168121 35.7121 0.797028 38.4464 1.91812C41.1808 3.01187 43.6007 4.52945 45.7062 6.47086L49.8488 20.4572C46.0753 14.0587 42.2335 9.1232 38.3234 5.65054C34.4406 2.15054 30.6261 0.496246 26.88 0.687653C23.9269 0.824371 21.0695 1.90445 18.3078 3.92789C15.546 5.95132 13.1398 8.64468 11.089 12.008C9.06557 15.3439 7.49331 19.4181 6.37221 24.2306C5.27846 29.0158 4.89565 34.047 5.22378 39.3244C5.44253 42.8517 6.04409 46.2013 7.02846 49.3732C8.04018 52.5451 9.298 55.3205 10.8019 57.6994C12.3332 60.0509 14.0695 62.1427 16.0109 63.9748C17.9523 65.7794 19.9757 67.215 22.0812 68.2814C24.214 69.3205 26.3605 70.0041 28.5207 70.3322C31.3644 70.7697 34.1398 70.6877 36.8468 70.0861C39.5539 69.4845 41.8234 68.6779 43.6554 67.6662C45.5148 66.6544 47.4152 65.2462 49.3566 63.4416C51.3253 61.6095 52.7609 60.1466 53.6632 59.0529C54.5656 57.9591 55.6457 56.5646 56.9035 54.8693C57.1769 54.4865 57.382 54.213 57.5187 54.049Z" fill="black"/>
<path d="M108.788 61.4318C108.98 61.213 109.13 61.1994 109.239 61.3908C109.349 61.5548 109.308 61.7326 109.116 61.924C108.925 62.1154 108.419 62.7306 107.599 63.7697C106.806 64.7814 106.027 65.7384 105.261 66.6408C104.523 67.5158 103.456 68.5412 102.062 69.7169C100.667 70.8927 99.2179 71.9044 97.714 72.7521C96.2374 73.5724 94.4191 74.2834 92.2589 74.8849C90.1261 75.4591 87.8839 75.7462 85.5324 75.7462C81.4035 75.7462 77.6164 74.7209 74.171 72.6701C70.7257 70.6193 68.005 67.8166 66.0089 64.2619C64.0402 60.7072 63.0558 56.797 63.0558 52.5314C63.0558 48.2658 64.0402 44.3556 66.0089 40.8009C68.005 37.2462 70.7257 34.4435 74.171 32.3927C77.6164 30.3419 81.4035 29.3166 85.5324 29.3166C88.923 29.3166 92.0812 30.0138 95.007 31.4084C97.9601 32.8029 100.476 34.7443 102.554 37.2326C103.019 37.7794 103.292 38.3673 103.374 38.9962C103.484 39.5978 103.306 40.131 102.841 40.5959C102.403 41.0607 101.679 41.2931 100.667 41.2931H70.1105C68.3878 45.4494 67.9093 49.8107 68.6749 54.3771C69.5226 59.3537 71.6144 63.4279 74.9503 66.5998C78.2863 69.7716 81.8683 71.4943 85.6964 71.7677C88.1574 71.9591 90.4953 71.8498 92.7101 71.4396C94.9523 71.0021 96.798 70.4689 98.2472 69.84C99.7238 69.2111 101.214 68.3224 102.718 67.174C104.222 66.0255 105.302 65.1232 105.958 64.4669C106.614 63.8107 107.435 62.9357 108.419 61.8419C108.583 61.6505 108.706 61.5138 108.788 61.4318ZM83.1124 30.1369C80.4601 30.4103 77.9992 31.4904 75.7296 33.3771C73.4874 35.2638 71.7101 37.6701 70.3976 40.5959H92.382C93.9679 40.5959 95.0343 39.8576 95.5812 38.381C96.1554 36.9044 95.8546 35.6193 94.6789 34.5255C91.0421 31.1623 87.1867 29.6994 83.1124 30.1369Z" fill="black"/>
<path d="M159.648 74.5978L162.314 74.8029V75.131H146.359V74.8029L148.984 74.5978C149.694 74.5431 150.296 74.256 150.788 73.7365C151.308 73.2169 151.568 72.6017 151.568 71.8908V49.3732C151.568 46.2287 151.13 43.3849 150.255 40.8419C149.38 38.2716 148.204 36.1935 146.728 34.6076C145.251 33.0216 143.583 31.8322 141.724 31.0392C139.892 30.2462 137.991 29.9181 136.023 30.0548C132.331 30.3283 129.323 31.6544 126.999 34.0334C124.702 36.4123 123.239 39.3654 122.61 42.8927V71.8087C122.61 72.5197 122.857 73.1486 123.349 73.6955C123.841 74.215 124.443 74.4884 125.153 74.5158L127.819 74.7209V75.049H111.864V74.7209L114.53 74.5158C115.241 74.4884 115.843 74.215 116.335 73.6955C116.827 73.1486 117.073 72.5197 117.073 71.8087V32.5978C117.073 31.8869 116.814 31.258 116.294 30.7111C115.802 30.1642 115.2 29.8771 114.489 29.8498L111.864 29.7267V29.3166H122.61V40.3498C123.677 37.1779 125.318 34.6486 127.532 32.7619C129.775 30.8478 132.591 29.7267 135.982 29.3986C138.552 29.1525 141.081 29.4123 143.569 30.1779C146.085 30.9162 148.341 32.0783 150.337 33.6642C152.36 35.2228 153.987 37.3146 155.218 39.9396C156.448 42.5373 157.064 45.4494 157.064 48.6759V71.8908C157.064 72.6017 157.31 73.2169 157.802 73.7365C158.321 74.256 158.937 74.5431 159.648 74.5978Z" fill="black"/>
<path d="M184.503 74.3517C185.734 74.3517 186.814 74.2013 187.743 73.9005C188.7 73.5724 189.603 73.0119 190.45 72.2189C191.298 71.3986 191.968 70.674 192.46 70.0451C192.952 69.3888 193.663 68.3771 194.593 67.0099C193.855 68.4318 193.226 69.5529 192.706 70.3732C192.214 71.1662 191.571 71.9728 190.778 72.7931C189.985 73.5861 189.069 74.1603 188.03 74.5158C187.019 74.8712 185.816 75.049 184.421 75.049C181.823 75.049 179.54 74.5158 177.571 73.4494C175.63 72.383 174.14 70.8107 173.101 68.7326C172.062 66.6544 171.542 63.8244 171.542 60.2423V20.1701H166.579V20.006L168.384 19.8009C169.368 19.6916 170.243 19.3634 171.009 18.8166C171.802 18.2423 172.39 17.5041 172.773 16.6017L176.71 7.53726H177.038V19.5138H188.03V20.1701H177.038V59.8732C177.038 63.5919 177.271 66.3263 177.735 68.0763C178.857 72.2599 181.112 74.3517 184.503 74.3517Z" fill="black"/>
<path d="M242.581 29.9318C241.87 29.9591 241.255 30.2462 240.735 30.7931C240.243 31.34 239.997 31.9689 239.997 32.6798V71.8498C239.997 72.5607 240.243 73.1896 240.735 73.7365C241.255 74.2834 241.87 74.5705 242.581 74.5978L245.247 74.7209V75.131H234.501V64.0978C233.435 67.2697 231.78 69.8127 229.538 71.7267C227.296 73.6134 224.48 74.7209 221.089 75.049C218.519 75.2951 215.976 75.049 213.46 74.3107C210.972 73.5451 208.716 72.383 206.693 70.8244C204.696 69.2384 203.083 67.1466 201.853 64.549C200.622 61.924 200.007 58.9982 200.007 55.7716V32.5978C200.007 31.8869 199.761 31.258 199.269 30.7111C198.777 30.1642 198.175 29.8771 197.464 29.8498L194.798 29.6447V29.3166H210.753V29.6447L208.087 29.8498C207.376 29.8771 206.775 30.1642 206.282 30.7111C205.79 31.258 205.544 31.8869 205.544 32.5978V55.0744C205.544 58.2189 205.982 61.0763 206.857 63.6466C207.732 66.1896 208.907 68.2541 210.384 69.84C211.86 71.4259 213.515 72.6154 215.347 73.4084C217.206 74.2013 219.12 74.5294 221.089 74.3927C224.78 74.1193 227.775 72.7931 230.071 70.4142C232.396 68.0353 233.872 65.0822 234.501 61.5548V32.6798C234.501 31.9689 234.241 31.34 233.722 30.7931C233.23 30.2462 232.628 29.9591 231.917 29.9318L229.292 29.7677V29.3986H245.247V29.7677L242.581 29.9318Z" fill="black"/>
<path d="M285.976 33.7873C286.413 33.5412 286.646 33.4455 286.673 33.5002C286.7 33.5822 286.482 33.8419 286.017 34.2794C284.896 35.2912 283.802 36.0978 282.736 36.6994C281.997 37.1095 281.382 37.424 280.89 37.6427C280.425 37.8615 279.823 38.0939 279.085 38.34C278.347 38.5587 277.663 38.6134 277.034 38.5041C276.405 38.3673 275.831 38.0802 275.312 37.6427C274.792 37.2052 274.382 36.713 274.081 36.1662C273.808 35.5919 273.548 34.9357 273.302 34.1974C273.056 33.4591 272.823 32.8712 272.605 32.4337C272.085 31.4494 271.333 30.7794 270.349 30.424C269.364 30.0685 268.339 30.0685 267.273 30.424C265.987 30.8615 264.511 31.9962 262.843 33.8283C262.023 34.758 261.161 35.8107 260.259 36.9865V71.8087C260.259 72.5197 260.505 73.1486 260.997 73.6955C261.489 74.215 262.091 74.4884 262.802 74.5158L265.468 74.7209V75.049H249.513V74.7209L252.179 74.5158C252.89 74.4884 253.491 74.215 253.984 73.6955C254.476 73.1486 254.722 72.5197 254.722 71.8087V32.5978C254.722 31.8869 254.462 31.258 253.943 30.7111C253.45 30.1642 252.849 29.8771 252.138 29.8498L249.513 29.7267V29.3166H260.259V36.4533C261.626 34.5119 263.239 32.8166 265.099 31.3673C267.778 29.2892 270.144 28.3732 272.194 28.6193C272.851 28.7013 273.439 28.9201 273.958 29.2755C274.505 29.631 274.874 29.9455 275.066 30.2189C275.284 30.4923 275.612 31.0392 276.05 31.8595C276.515 32.6525 276.816 33.1447 276.952 33.3361C277.663 34.4845 278.689 35.2228 280.028 35.5509C281.45 35.8517 283.433 35.2638 285.976 33.7873Z" fill="black"/>
<path d="M344.669 41.4982L345.859 41.1291C345.312 41.4298 344.396 41.9357 343.111 42.6466C341.825 43.3576 340.964 43.8224 340.527 44.0412C338.339 45.1896 336.616 45.8459 335.359 46.0099C334.593 46.1193 333.786 46.0919 332.939 45.9279C332.091 45.7365 331.517 45.3537 331.216 44.7794L319.609 70.1271C319.226 71.0294 318.187 73.258 316.491 76.8127C314.796 80.3947 313.456 83.4572 312.472 86.0002C311.487 88.5705 310.804 90.9494 310.421 93.1369C309.737 97.1564 310.462 99.8224 312.595 101.135C313.525 101.709 314.454 102.037 315.384 102.119C316.341 102.201 317.298 102.106 318.255 101.832C320.634 101.285 322.589 100.752 324.12 100.233C324.257 100.178 324.325 100.178 324.325 100.233C324.325 100.287 324.257 100.383 324.12 100.52L324.079 100.602C323.861 100.875 323.382 101.121 322.644 101.34C321.823 101.641 320.593 102.01 318.952 102.447C317.339 102.885 316.177 103.227 315.466 103.473C314.782 103.692 314.263 103.856 313.907 103.965C313.552 104.074 313.032 104.197 312.349 104.334C311.693 104.471 311.077 104.498 310.503 104.416C309.956 104.361 309.437 104.225 308.944 104.006C306.538 102.885 306.005 100.369 307.345 96.4591C308.603 92.7404 311.72 85.6037 316.696 75.049H316.655L295.984 32.5978C295.601 31.8048 295.027 31.1623 294.261 30.6701C293.523 30.1505 292.716 29.8771 291.841 29.8498L289.216 29.7267V29.3166H305.868V29.7267L303.079 29.8498C302.396 29.8771 301.876 30.1779 301.521 30.7521C301.193 31.3263 301.179 31.9279 301.48 32.5568L319.444 69.2248L331.093 43.59C331.12 43.3166 331.312 42.6877 331.667 41.7033C331.968 40.883 332.228 39.9669 332.446 38.9552C332.528 37.424 332.378 36.0568 331.995 34.8537C331.777 34.1154 331.462 33.4865 331.052 32.9669C330.532 32.256 330.04 31.8459 329.575 31.7365C329.493 31.7091 329.302 31.7775 329.001 31.9416C328.509 32.215 328.126 32.4064 327.853 32.5158C327.169 32.7892 326.745 32.9396 326.581 32.9669C326.39 33.0216 326.198 33.0216 326.007 32.9669C325.679 32.8849 325.556 32.7345 325.638 32.5158C325.693 32.3791 326.253 31.9416 327.319 31.2033C328.386 30.4377 329.193 29.9318 329.739 29.6857C330.478 29.3029 331.093 29.2072 331.585 29.3986C332.077 29.5627 332.487 29.8361 332.816 30.2189C333.144 30.5744 333.39 31.0802 333.554 31.7365C333.718 32.3927 333.827 33.008 333.882 33.5822C333.937 34.1291 333.964 34.7033 333.964 35.3048V35.3459C333.991 36.1662 333.882 37.3009 333.636 38.7502C333.39 40.1994 332.993 41.4572 332.446 42.5236C332.392 42.9337 332.419 43.2619 332.528 43.508C332.802 44.2462 333.595 44.7111 334.907 44.9025C335.755 45.0119 336.644 44.9572 337.573 44.7384C338.804 44.4377 340.54 43.6857 342.782 42.4826C343.001 42.3732 343.316 42.2091 343.726 41.9904C344.136 41.7716 344.45 41.6076 344.669 41.4982Z" fill="black"/>
</svg>
