<svg width="2579" height="812" viewBox="0 0 2579 812" fill="none" xmlns="http://www.w3.org/2000/svg">
<path d="M410.716 82.0981L407.689 83.4439C390.197 67.2935 369.117 54.3956 344.45 44.7502C320.006 35.1048 293.096 30.2821 263.719 30.2821C235.464 30.2821 209.563 34.7683 186.016 43.7408C162.47 52.4889 142.175 65.2747 125.132 82.0981C108.313 98.9214 95.1946 119.558 85.7761 144.008C76.3575 168.458 71.6482 196.273 71.6482 227.452C71.6482 261.772 76.1333 293.848 85.1033 323.682C94.0733 353.291 107.416 378.974 125.132 400.733C142.848 422.491 164.937 439.651 191.398 452.212C218.084 464.549 249.143 470.718 284.575 470.718C297.357 470.718 310.139 469.372 322.922 466.68C335.704 463.989 347.926 460.063 359.587 454.904C371.472 449.52 382.572 443.128 392.888 435.725C403.428 428.099 412.958 419.463 421.48 409.817L425.18 412.173L398.27 480.812C381.451 487.317 362.838 492.252 342.431 495.617C322.249 499.206 301.842 501 281.211 501C239.724 501 201.714 495.056 167.179 483.167C132.869 471.054 103.268 454.007 78.3758 432.024C53.7081 410.042 34.4225 383.685 20.519 352.954C6.83966 321.999 0 287.68 0 249.995C0 228.686 2.69101 207.713 8.07304 187.076C13.6793 166.439 21.7524 146.812 32.2922 128.194C42.832 109.576 55.8385 92.5285 71.3119 77.051C86.7852 61.3492 104.389 47.7784 124.123 36.3385C144.081 24.8986 165.946 16.0383 189.716 9.75756C213.711 3.25252 239.612 0 267.419 0C310.7 0 350.841 6.61719 387.842 19.8516L410.716 82.0981Z" fill="white"/>
<path d="M482.701 128.867C504.677 128.867 527.214 128.867 550.312 128.867C573.41 128.643 594.826 128.418 614.56 128.194C634.294 127.745 651.225 127.297 665.353 126.848C679.705 126.4 689.124 125.727 693.609 124.829L680.49 161.168C674.435 159.598 667.596 158.14 659.971 156.794C653.244 155.672 645.058 154.663 635.416 153.766C625.997 152.644 615.009 152.083 602.451 152.083C597.966 152.083 592.808 152.308 586.977 152.756C581.147 152.981 575.541 153.317 570.158 153.766C563.879 154.214 557.488 154.663 550.985 155.111V288.016C569.149 287.792 585.52 287.343 600.096 286.67C614.672 285.997 627.118 285.1 637.434 283.979C649.543 283.081 660.195 281.848 669.39 280.277L661.317 320.317C648.983 318.747 636.537 317.401 623.979 316.279C613.215 315.158 601.329 314.261 588.323 313.588C575.316 312.69 562.87 312.242 550.985 312.242V464.998C571.84 464.998 591.014 464.213 608.505 462.643C625.997 460.848 641.246 458.942 654.253 456.923C669.502 454.455 683.293 451.651 695.627 448.511L687.89 492.588C684.527 492.364 679.032 492.028 671.408 491.579C664.008 491.355 656.159 491.13 647.862 490.906C639.788 490.906 632.164 490.794 624.988 490.57C617.812 490.57 612.878 490.57 610.187 490.57H482.701V489.224C484.27 484.513 485.616 478.457 486.737 471.054C488.083 463.652 489.092 454.568 489.764 443.801C490.661 432.809 491.334 419.799 491.783 404.77C492.231 389.741 492.455 372.133 492.455 351.945V267.155C492.455 246.967 492.231 229.471 491.783 214.666C491.334 199.637 490.661 186.739 489.764 175.972C489.092 164.981 488.083 155.784 486.737 148.382C485.616 140.98 484.27 134.923 482.701 130.213V128.867Z" fill="white"/>
<path d="M1093.9 495.28H1080.78L813.359 232.163V351.945C813.359 372.133 813.471 389.741 813.695 404.77C813.919 419.799 814.256 432.809 814.704 443.801C815.377 454.568 816.162 463.652 817.059 471.054C818.18 478.457 819.526 484.513 821.095 489.224V490.57H770.639V489.224C772.209 484.513 773.554 478.457 774.676 471.054C775.797 463.652 776.694 454.568 777.367 443.801C778.039 432.809 778.488 419.799 778.712 404.77C778.936 389.741 779.048 372.133 779.048 351.945V267.155C779.048 246.967 778.936 229.471 778.712 214.666C778.488 199.637 778.039 186.739 777.367 175.972C776.694 164.981 775.797 155.784 774.676 148.382C773.554 140.98 772.209 134.923 770.639 130.213V128.867H791.494L1059.25 393.33V267.155C1059.25 246.967 1059.14 229.471 1058.91 214.666C1058.69 199.637 1058.24 186.739 1057.57 175.972C1057.12 164.981 1056.45 155.784 1055.55 148.382C1054.65 140.98 1053.42 134.923 1051.85 130.213V128.867H1101.97V130.213C1100.4 134.923 1099.05 140.98 1097.93 148.382C1097.04 155.784 1096.25 164.981 1095.58 175.972C1094.91 186.739 1094.46 199.637 1094.23 214.666C1094.01 229.471 1093.9 246.967 1093.9 267.155V495.28Z" fill="white"/>
<path d="M1282.94 153.766C1262.53 153.766 1243.92 154.663 1227.1 156.457C1210.51 158.252 1196.16 160.158 1184.05 162.177C1170.14 164.645 1157.58 167.336 1146.37 170.253L1153.1 126.848C1156.46 127.297 1161.96 127.633 1169.58 127.858C1177.21 128.082 1185.17 128.306 1193.46 128.531C1201.99 128.531 1209.95 128.643 1217.35 128.867C1224.97 128.867 1230.24 128.867 1233.16 128.867H1392.26C1394.95 128.867 1399.89 128.867 1407.06 128.867C1414.46 128.643 1422.31 128.531 1430.61 128.531C1438.91 128.306 1446.87 128.082 1454.49 127.858C1462.12 127.633 1467.61 127.297 1470.98 126.848L1477.7 170.253C1466.94 167.336 1454.6 164.645 1440.7 162.177C1428.82 160.158 1414.46 158.252 1397.65 156.457C1381.05 154.663 1362.33 153.766 1341.47 153.766V351.945C1341.47 372.133 1341.69 389.741 1342.14 404.77C1342.59 419.799 1343.15 432.809 1343.82 443.801C1344.72 454.568 1345.73 463.652 1346.85 471.054C1347.97 478.457 1349.32 484.513 1350.89 489.224V490.57H1273.19V489.224C1274.76 484.513 1276.1 478.457 1277.22 471.054C1278.34 463.652 1279.35 454.568 1280.25 443.801C1281.15 432.809 1281.82 419.799 1282.27 404.77C1282.72 389.741 1282.94 372.133 1282.94 351.945V153.766Z" fill="white"/>
<path d="M1798.94 265.809C1798.94 245.846 1798.83 228.461 1798.61 213.657C1798.38 198.852 1797.93 186.066 1797.26 175.3C1796.59 164.533 1795.8 155.56 1794.91 148.382C1794.01 140.98 1792.89 134.923 1791.54 130.213V128.867H1840.99V130.213C1839.64 134.923 1838.52 140.98 1837.63 148.382C1836.73 155.784 1835.94 164.981 1835.27 175.972C1834.6 186.739 1834.15 199.637 1833.93 214.666C1833.7 229.471 1833.59 246.967 1833.59 267.155V363.721C1833.59 387.947 1829.78 408.584 1822.15 425.631C1814.75 442.679 1804.44 456.698 1791.21 467.69C1777.98 478.457 1762.17 486.308 1743.78 491.242C1725.61 496.402 1705.65 498.981 1683.9 498.981C1661.93 498.981 1641.52 496.514 1622.68 491.579C1603.84 486.868 1587.47 479.242 1573.57 468.699C1559.89 458.156 1549.01 444.473 1540.94 427.65C1533.09 410.827 1529.17 390.414 1529.17 366.413V267.155C1529.17 246.967 1528.94 229.471 1528.5 214.666C1528.05 199.637 1527.37 186.739 1526.48 175.972C1525.58 164.981 1524.57 155.784 1523.45 148.382C1522.33 140.98 1520.98 134.923 1519.41 130.213V128.867H1597.12V130.213C1595.55 134.923 1594.2 140.98 1593.08 148.382C1591.96 155.56 1590.95 164.533 1590.05 175.3C1589.38 186.066 1588.82 198.852 1588.37 213.657C1587.92 228.461 1587.7 245.846 1587.7 265.809V366.413C1587.7 386.377 1590.73 402.864 1596.78 415.874C1602.83 428.66 1610.8 438.866 1620.66 446.492C1630.53 454.119 1641.74 459.502 1654.3 462.643C1666.86 465.559 1679.75 467.017 1692.98 467.017C1706.44 467.017 1719.45 465.559 1732 462.643C1744.79 459.502 1756.11 454.119 1765.98 446.492C1776.07 438.866 1784.03 428.66 1789.86 415.874C1795.92 402.864 1798.94 386.377 1798.94 366.413V265.809Z" fill="white"/>
<path d="M1996.73 314.934C2001.22 315.606 2005.7 316.167 2010.19 316.616C2014.9 316.84 2019.38 316.952 2023.64 316.952C2051.67 316.952 2072.87 309.438 2087.22 294.409C2101.79 279.38 2109.08 256.837 2109.08 226.779C2109.08 202.105 2103.25 182.59 2091.59 168.234C2080.15 153.878 2063.22 146.7 2040.8 146.7C2033.62 146.7 2027.23 147.036 2021.62 147.709C2016.24 148.158 2011.64 148.719 2007.83 149.392C2003.57 150.289 1999.87 151.186 1996.73 152.083V314.934ZM2048.2 336.804C2043.71 337.477 2039.23 337.925 2034.74 338.15C2030.48 338.15 2026.11 338.15 2021.62 338.15C2018.04 338.15 2014.11 338.038 2009.85 337.813C2005.59 337.589 2001.22 337.253 1996.73 336.804V353.291C1996.73 373.255 1996.96 390.751 1997.4 405.78C1997.85 420.584 1998.41 433.37 1999.09 444.137C1999.98 454.904 2000.99 463.989 2002.11 471.391C2003.24 478.569 2004.58 484.513 2006.15 489.224V490.57H1928.45V489.224C1930.02 484.513 1931.36 478.457 1932.48 471.054C1933.83 463.652 1934.84 454.568 1935.51 443.801C1936.41 432.809 1937.08 419.799 1937.53 404.77C1937.98 389.741 1938.2 372.133 1938.2 351.945V267.155C1938.2 246.967 1937.98 229.471 1937.53 214.666C1937.08 199.637 1936.41 186.739 1935.51 175.972C1934.84 164.981 1933.83 155.784 1932.48 148.382C1931.36 140.98 1930.02 134.923 1928.45 130.213V128.867C1932.04 129.091 1935.85 129.316 1939.88 129.54C1943.25 129.764 1946.95 129.989 1950.98 130.213C1955.25 130.213 1959.51 130.213 1963.77 130.213C1970.94 130.213 1981.6 129.54 1995.72 128.194C2009.85 126.848 2026.45 126.175 2045.51 126.175C2064.79 126.175 2082.28 128.531 2097.98 133.241C2113.9 137.952 2127.47 144.681 2138.68 153.429C2150.12 162.177 2158.87 172.832 2164.92 185.394C2171.2 197.955 2174.34 211.974 2174.34 227.452C2174.34 239.565 2172.66 250.668 2169.29 260.762C2165.93 270.632 2161.22 279.604 2155.17 287.68C2149.11 295.531 2141.93 302.484 2133.64 308.541C2125.34 314.597 2116.15 319.868 2106.05 324.355L2176.36 423.612C2182.41 431.688 2188.47 439.426 2194.52 446.829C2200.8 454.231 2206.74 460.848 2212.35 466.68C2217.96 472.512 2223.23 477.447 2228.16 481.485C2233.09 485.298 2237.24 487.878 2240.61 489.224V490.57H2152.47C2152.47 488.551 2151.02 485.074 2148.1 480.139C2145.41 474.98 2142.16 469.709 2138.35 464.325C2134.76 458.717 2131.06 453.334 2127.25 448.175C2123.66 443.015 2120.97 439.202 2119.17 436.735L2048.2 336.804Z" fill="white"/>
<path d="M2427.29 351.945C2427.29 372.133 2427.52 389.741 2427.97 404.77C2428.42 419.799 2428.98 432.809 2429.65 443.801C2430.55 454.568 2431.55 463.652 2432.68 471.054C2434.02 478.457 2435.48 484.513 2437.05 489.224V490.57H2359.01V489.224C2360.58 484.513 2361.92 478.457 2363.05 471.054C2364.39 463.652 2365.4 454.568 2366.07 443.801C2366.97 432.809 2367.64 419.799 2368.09 404.77C2368.54 389.741 2368.76 372.133 2368.76 351.945V328.729L2247.67 168.907C2239.6 158.14 2231.86 149.504 2224.46 142.999C2217.06 136.269 2211.45 132.007 2207.64 130.213V128.867H2303.17C2303.17 132.905 2304.63 139.185 2307.54 147.709C2310.46 156.009 2316.4 166.215 2325.37 178.328L2410.81 291.381L2498.27 173.617C2504.55 165.093 2509.26 156.682 2512.4 148.382C2515.76 140.083 2517.44 133.578 2517.44 128.867H2579V130.213C2573.39 134.026 2567.56 138.849 2561.51 144.681C2555.68 150.513 2548.84 158.813 2540.99 169.58L2427.29 323.682V351.945Z" fill="white"/>
<path d="M1197 619.11C1217.35 619.11 1237.54 619.066 1257.56 618.978C1277.75 618.89 1296.23 618.802 1313 618.714C1329.77 618.538 1344.1 618.318 1355.98 618.055C1367.87 617.791 1375.93 617.439 1380.16 617L1368.19 634.535C1362.82 633.744 1356.55 633.041 1349.39 632.426C1343.2 631.899 1335.63 631.415 1326.68 630.976C1317.89 630.448 1307.71 630.185 1296.15 630.185C1292.24 630.185 1287.52 630.272 1281.99 630.448C1276.61 630.536 1271.4 630.668 1266.36 630.844C1260.5 631.02 1254.55 631.195 1248.53 631.371V703.359C1265.3 703.271 1280.44 703.007 1293.95 702.568C1307.47 702.128 1318.94 701.689 1328.39 701.249C1339.46 700.722 1349.23 700.107 1357.69 699.404L1350.12 718.521C1338.89 717.73 1327.41 716.983 1315.69 716.28C1305.59 715.665 1294.6 715.137 1282.72 714.698C1270.83 714.17 1259.44 713.907 1248.53 713.907V796.574C1267.74 796.574 1285.41 796.135 1301.52 795.256C1317.64 794.377 1331.72 793.366 1343.77 792.223C1357.77 790.993 1370.55 789.542 1382.11 787.872L1375.03 809.231C1373.08 809.143 1370.15 809.055 1366.24 808.968C1362.33 808.88 1357.94 808.792 1353.05 808.704C1348.33 808.616 1343.28 808.528 1337.91 808.44C1332.7 808.44 1327.74 808.396 1323.01 808.308C1318.29 808.308 1314.06 808.264 1310.31 808.176C1306.73 808.176 1304.13 808.176 1302.5 808.176H1197V807.649C1197.98 805.803 1198.87 803.518 1199.69 800.793C1200.66 798.068 1201.48 794.684 1202.13 790.641C1202.78 786.598 1203.27 781.807 1203.59 776.27C1203.92 770.644 1204.08 764.096 1204.08 756.625V670.793C1204.08 663.322 1203.92 656.817 1203.59 651.28C1203.27 645.654 1202.78 640.82 1202.13 636.777C1201.48 632.646 1200.66 629.218 1199.69 626.493C1198.87 623.768 1197.98 621.483 1197 619.637V619.11Z" fill="white"/>
<path d="M1466.37 666.442V666.97C1466.04 667.409 1465.8 668.112 1465.63 669.079C1465.47 670.046 1465.39 670.881 1465.39 671.584C1465.39 674.397 1466.12 677.561 1467.59 681.077C1469.22 684.505 1472.15 688.812 1476.38 693.998L1541.34 773.369L1606.79 695.053C1608.25 693.383 1609.72 691.625 1611.18 689.779C1612.65 687.845 1614.03 685.867 1615.34 683.846C1616.64 681.824 1617.7 679.803 1618.51 677.781C1619.33 675.671 1619.73 673.606 1619.73 671.584C1619.73 670.442 1619.57 669.475 1619.24 668.684C1618.92 667.805 1618.59 667.233 1618.27 666.97V666.442H1664.42V666.97C1661.33 668.728 1657.34 671.848 1652.46 676.331C1647.57 680.725 1642.53 686.351 1637.32 693.207L1539.87 810.022H1524.25L1434.37 699.931C1431.12 695.888 1427.62 692.02 1423.87 688.329C1420.29 684.549 1416.87 681.209 1413.62 678.308C1410.52 675.32 1407.76 672.859 1405.31 670.925C1402.87 668.903 1401.16 667.585 1400.19 666.97V666.442H1466.37Z" fill="white"/>
<path d="M1689.33 666.442C1705.29 666.442 1721.65 666.442 1738.42 666.442C1755.19 666.354 1770.74 666.266 1785.06 666.178C1799.39 666.003 1811.68 665.827 1821.94 665.651C1832.36 665.475 1839.2 665.212 1842.45 664.86L1832.93 679.099C1828.53 678.484 1823.57 677.913 1818.03 677.385C1813.15 676.946 1807.21 676.55 1800.21 676.199C1793.37 675.759 1785.39 675.54 1776.27 675.54C1773.02 675.54 1769.27 675.627 1765.04 675.803C1760.81 675.891 1756.74 676.023 1752.83 676.199C1748.27 676.375 1743.63 676.55 1738.91 676.726V728.805C1752.1 728.717 1763.98 728.542 1774.56 728.278C1785.15 728.014 1794.18 727.663 1801.67 727.223C1810.46 726.872 1818.2 726.388 1824.87 725.773L1819.01 741.462C1810.06 740.847 1801.02 740.32 1791.9 739.88C1784.09 739.441 1775.46 739.089 1766.02 738.826C1756.57 738.474 1747.54 738.298 1738.91 738.298V798.156C1754.05 798.156 1767.97 797.849 1780.67 797.233C1793.37 796.53 1804.44 795.783 1813.88 794.992C1824.95 794.025 1834.97 792.926 1843.92 791.696L1838.3 808.968C1835.86 808.88 1831.87 808.748 1826.34 808.572C1820.96 808.484 1815.27 808.396 1809.24 808.308C1803.38 808.308 1797.84 808.264 1792.63 808.176C1787.43 808.176 1783.84 808.176 1781.89 808.176H1689.33V807.649C1690.47 805.803 1691.45 803.43 1692.26 800.529C1693.24 797.629 1693.97 794.069 1694.46 789.85C1695.11 785.543 1695.6 780.445 1695.93 774.556C1696.25 768.667 1696.42 761.767 1696.42 753.856V720.631C1696.42 712.72 1696.25 705.864 1695.93 700.063C1695.6 694.174 1695.11 689.12 1694.46 684.901C1693.97 680.594 1693.24 676.99 1692.26 674.089C1691.45 671.189 1690.47 668.815 1689.33 666.97V666.442Z" fill="white"/>
<path d="M2133.07 810.022H2123.54L1929.39 706.919V753.856C1929.39 761.767 1929.48 768.667 1929.64 774.556C1929.8 780.445 1930.05 785.543 1930.37 789.85C1930.86 794.069 1931.43 797.629 1932.08 800.529C1932.89 803.43 1933.87 805.803 1935.01 807.649V808.176H1898.38V807.649C1899.52 805.803 1900.5 803.43 1901.31 800.529C1902.12 797.629 1902.77 794.069 1903.26 789.85C1903.75 785.543 1904.08 780.445 1904.24 774.556C1904.4 768.667 1904.48 761.767 1904.48 753.856V720.631C1904.48 712.72 1904.4 705.864 1904.24 700.063C1904.08 694.174 1903.75 689.12 1903.26 684.901C1902.77 680.594 1902.12 676.99 1901.31 674.089C1900.5 671.189 1899.52 668.815 1898.38 666.97V666.442H1913.52L2107.91 770.073V720.631C2107.91 712.72 2107.83 705.864 2107.67 700.063C2107.51 694.174 2107.18 689.12 2106.69 684.901C2106.37 680.594 2105.88 676.99 2105.23 674.089C2104.58 671.189 2103.68 668.815 2102.54 666.97V666.442H2138.93V666.97C2137.79 668.815 2136.81 671.189 2136 674.089C2135.35 676.99 2134.78 680.594 2134.29 684.901C2133.8 689.12 2133.47 694.174 2133.31 700.063C2133.15 705.864 2133.07 712.72 2133.07 720.631V810.022Z" fill="white"/>
<path d="M2270.32 676.199C2255.5 676.199 2241.99 676.55 2229.78 677.254C2217.73 677.957 2207.31 678.704 2198.52 679.495C2188.42 680.462 2179.31 681.517 2171.16 682.659L2176.05 665.651C2178.49 665.827 2182.48 665.959 2188.02 666.047C2193.55 666.135 2199.33 666.222 2205.35 666.31C2211.54 666.31 2217.32 666.354 2222.69 666.442C2228.23 666.442 2232.06 666.442 2234.17 666.442H2349.68C2351.64 666.442 2355.22 666.442 2360.43 666.442C2365.8 666.354 2371.5 666.31 2377.52 666.31C2383.55 666.222 2389.33 666.135 2394.86 666.047C2400.4 665.959 2404.39 665.827 2406.83 665.651L2411.71 682.659C2403.9 681.517 2394.94 680.462 2384.85 679.495C2376.22 678.704 2365.8 677.957 2353.59 677.254C2341.54 676.55 2327.95 676.199 2312.81 676.199V753.856C2312.81 761.767 2312.97 768.667 2313.3 774.556C2313.62 780.445 2314.03 785.543 2314.52 789.85C2315.17 794.069 2315.9 797.629 2316.72 800.529C2317.53 803.43 2318.51 805.803 2319.65 807.649V808.176H2263.23V807.649C2264.37 805.803 2265.35 803.43 2266.16 800.529C2266.98 797.629 2267.71 794.069 2268.36 789.85C2269.01 785.543 2269.5 780.445 2269.83 774.556C2270.15 768.667 2270.32 761.767 2270.32 753.856V676.199Z" fill="white"/>
<path d="M2562.88 693.998H2558C2557.02 692.504 2555.39 690.614 2553.11 688.329C2551 686.043 2548.07 683.802 2544.32 681.604C2540.74 679.407 2536.26 677.561 2530.89 676.067C2525.52 674.485 2519.09 673.694 2511.6 673.694C2505.9 673.694 2500.77 674.221 2496.21 675.276C2491.82 676.243 2488.07 677.605 2484.98 679.363C2481.88 681.121 2479.52 683.231 2477.9 685.692C2476.27 688.065 2475.45 690.658 2475.45 693.471C2475.45 698.041 2477.98 702.392 2483.02 706.523C2488.23 710.654 2494.67 714.786 2502.32 718.917C2509.97 722.96 2518.27 727.047 2527.23 731.178C2536.18 735.31 2544.48 739.617 2552.14 744.099C2559.79 748.582 2566.14 753.329 2571.19 758.339C2576.39 763.349 2579 768.711 2579 774.424C2579 778.643 2577.53 782.994 2574.6 787.477C2571.84 791.959 2567.28 796.003 2560.93 799.606C2554.58 803.21 2546.44 806.155 2536.51 808.44C2526.58 810.813 2514.53 812 2500.36 812C2492.55 812 2485.06 811.648 2477.9 810.945C2470.9 810.242 2464.38 809.363 2458.36 808.308C2452.5 807.341 2447.21 806.287 2442.48 805.144C2437.93 803.913 2434.1 802.771 2431.01 801.716L2435.4 776.797H2440.53C2442.16 779.874 2444.52 782.95 2447.61 786.026C2450.87 789.103 2454.78 791.915 2459.34 794.464C2464.06 796.926 2469.51 798.947 2475.7 800.529C2482.05 802.024 2489.29 802.771 2497.43 802.771C2503.13 802.771 2508.5 802.287 2513.55 801.32C2518.6 800.266 2522.91 798.815 2526.49 796.97C2530.24 795.124 2533.17 792.882 2535.29 790.245C2537.4 787.521 2538.46 784.488 2538.46 781.148C2538.46 777.193 2537 773.545 2534.06 770.205C2531.13 766.777 2527.23 763.525 2522.34 760.448C2517.46 757.284 2511.92 754.252 2505.74 751.351C2499.71 748.45 2493.44 745.506 2486.93 742.517C2480.42 739.529 2474.07 736.496 2467.88 733.42C2461.86 730.256 2456.41 726.872 2451.52 723.268C2446.64 719.664 2442.73 715.84 2439.8 711.797C2436.87 707.666 2435.4 703.139 2435.4 698.217C2435.4 693.031 2437.44 688.373 2441.51 684.241C2445.58 680.11 2450.95 676.638 2457.63 673.826C2464.3 670.925 2471.95 668.728 2480.58 667.233C2489.21 665.651 2498.17 664.86 2507.45 664.86C2514.28 664.86 2520.63 665.124 2526.49 665.651C2532.52 666.178 2537.89 666.838 2542.61 667.629C2547.5 668.332 2551.73 669.079 2555.31 669.87C2558.89 670.573 2561.82 671.145 2564.1 671.584L2562.88 693.998Z" fill="white"/>
</svg>
